#!OML:ASF F:\VICON\USERDATA\INSTALL\rory3\rory3.ASF
:FULLY-SPECIFIED
:DEGREES
370
root -4.96186 17.4907 10.0807 -180.969 19.3335 -179.749
lowerback 11.5977 1.52186 -2.31237
upperback 0.83249 1.85809 0.80765
thorax -5.73312 1.01891 1.8434
lowerneck -17.235 -8.53018 -12.1006
upperneck 30.0434 -10.3323 9.34562
head 14.4052 -4.15492 4.11781
rclavicle 5.479e-014 -1.39149e-014
rhumerus -35.6697 -13.1561 -77.0835
rradius 35.2147
rwrist 6.46923
rhand -17.9997 5.22655
rfingers 7.12502
rthumb 8.27058 -24.5916
lclavicle 5.479e-014 -1.39149e-014
lhumerus -38.4642 9.43659 79.6146
lradius 33.7363
lwrist -7.31279
lhand -12.2491 28.9157
lfingers 7.12502
lthumb 13.8169 58.4368
rfemur -7.31376 -5.16757 19.9095
rtibia 36.0162
rfoot -23.7215 -1.16033
rtoes -2.25999
lfemur -8.30172 5.72945 -24.0866
ltibia 37.0712
lfoot -18.5052 -1.19046
ltoes -6.25064
371
root -4.92156 17.4678 10.0972 -181.034 18.7627 -179.822
lowerback 11.5833 1.50217 -2.61345
upperback 0.848268 1.79706 0.852921
thorax -5.71607 0.997235 2.07154
lowerneck -17.0993 -8.54785 -12.1738
upperneck 29.9503 -10.4101 9.57115
head 14.367 -4.16766 4.21026
rclavicle 2.13197e-014 -7.85199e-015
rhumerus -35.752 -13.3405 -76.9319
rradius 35.1451
rwrist 6.89065
rhand -17.735 5.46772
rfingers 7.12502
rthumb 8.5261 -24.3401
lclavicle 2.13197e-014 -7.85199e-015
lhumerus -38.4276 9.27454 79.8158
lradius 33.709
lwrist -7.14998
lhand -12.6089 27.8124
lfingers 7.12502
lthumb 13.4701 57.3568
rfemur -7.56665 -5.84363 19.9029
rtibia 36.7199
rfoot -24.0039 -0.90797
rtoes -2.24905
lfemur -7.83532 5.1853 -24.2367
ltibia 36.2459
lfoot -18.7378 -0.94645
ltoes -5.08086
372
root -4.88175 17.4401 10.1131 -181.16 18.1391 -179.958
lowerback 11.6077 1.45893 -2.92286
upperback 0.878145 1.69983 0.830821
thorax -5.70089 0.957299 2.23902
lowerneck -16.9971 -8.55967 -12.0901
upperneck 29.857 -10.5003 9.71209
head 14.3201 -4.17846 4.2372
rclavicle 4.55217e-014 1.22253e-014
rhumerus -35.8196 -13.7233 -76.8047
rradius 35.0434
rwrist 7.52555
rhand -17.2884 5.30393
rfingers 7.12502
rthumb 8.95703 -24.4859
lclavicle 4.55217e-014 1.22253e-014
lhumerus -38.4058 8.81076 80.0231
lradius 33.7912
lwrist -6.76269
lhand -13.1972 26.6746
lfingers 7.12502
lthumb 12.9031 56.2557
rfemur -7.78486 -6.61242 19.8
rtibia 37.4466
rfoot -24.2827 -0.604477
rtoes -2.26708
lfemur -7.29622 4.64948 -24.3853
ltibia 35.5427
lfoot -19.0064 -0.135941
ltoes -6.53993
373
root -4.84209 17.4279 10.1312 -181.122 17.5155 -179.99
lowerback 11.5776 1.41576 -3.17956
upperback 0.855054 1.60992 0.849585
thorax -5.71051 0.919785 2.41915
lowerneck -17.0284 -8.56996 -11.9072
upperneck 29.881 -10.5679 9.72703
head 14.335 -4.1782 4.20083
rclavicle -4.32357e-015 -1.19271e-015
rhumerus -35.9006 -14.1057 -76.7128
rradius 34.9366
rwrist 7.98197
rhand -16.9956 5.02698
rfingers 7.12502
rthumb 9.2396 -24.7506
lclavicle -4.32357e-015 -1.19271e-015
lhumerus -38.4005 8.30983 80.253
lradius 33.9717
lwrist -6.44198
lhand -13.4641 25.9271
lfingers 7.12502
lthumb 12.6458 55.5243
rfemur -8.1471 -7.26809 19.8377
rtibia 38.156
rfoot -24.4625 -0.337638
rtoes -2.45721
lfemur -7.00652 4.10081 -24.3453
ltibia 34.9522
lfoot -19.2362 0.639644
ltoes -8.05164
374
root -4.80232 17.4262 10.1533 -181.102 16.8594 -180.114
lowerback 11.572 1.36789 -3.54452
upperback 0.845537 1.49988 0.864789
thorax -5.71991 0.875347 2.65984
lowerneck -17.0174 -8.58456 -11.7869
upperneck 29.8326 -10.6215 9.71929
head 14.3091 -4.18791 4.16534
rclavicle -3.16192e-015 1.24737e-014
rhumerus -35.9796 -14.4836 -76.6179
rradius 34.9371
rwrist 8.12295
rhand -16.9265 4.4768
rfingers 7.12502
rthumb 9.30629 -25.2978
lclavicle -3.16192e-015 1.24737e-014
lhumerus -38.3502 7.90777 80.5015
lradius 34.1139
lwrist -6.15022
lhand -13.6643 25.1378
lfingers 7.12502
lthumb 12.4528 54.7468
rfemur -8.50803 -7.81471 19.7758
rtibia 38.8639
rfoot -24.449 0.0977181
rtoes -2.25729
lfemur -6.85289 3.42604 -24.3463
ltibia 34.4192
lfoot -19.4442 0.507055
ltoes -7.25175
375
root -4.76256 17.4244 10.1746 -181.115 16.2637 -180.269
lowerback 11.5849 1.33694 -3.93188
upperback 0.874812 1.41006 0.85532
thorax -5.6987 0.840927 2.88396
lowerneck -17.1178 -8.61566 -11.722
upperneck 29.7748 -10.7119 9.81587
head 14.3209 -4.20513 4.17235
rclavicle -2.17048e-014 -6.26172e-015
rhumerus -35.9547 -14.9974 -76.4917
rradius 34.8295
rwrist 8.35183
rhand -16.9861 4.07954
rfingers 7.12502
rthumb 9.24873 -25.6976
lclavicle -2.17048e-014 -6.26172e-015
lhumerus -38.1704 7.70845 80.6307
lradius 34.086
lwrist -6.14007
lhand -13.9985 23.7826
lfingers 7.12502
lthumb 12.1306 53.411
rfemur -8.84822 -8.48311 19.6108
rtibia 39.5656
rfoot -24.2755 0.892426
rtoes -1.8251
lfemur -6.70226 2.86582 -24.3315
ltibia 33.9603
lfoot -19.7507 -0.126599
ltoes -6.03292
376
root -4.721 17.4224 10.1941 -181.056 15.7412 -180.274
lowerback 11.6276 1.31853 -4.18796
upperback 0.828729 1.34963 0.878435
thorax -5.77312 0.819587 3.06251
lowerneck -17.1948 -8.64608 -11.6993
upperneck 29.8379 -10.7962 9.95678
head 14.3876 -4.21113 4.21345
rclavicle 1.64184e-014 -4.87022e-015
rhumerus -36.0246 -15.6718 -76.2928
rradius 34.5756
rwrist 8.85665
rhand -17.0424 3.84334
rfingers 7.12502
rthumb 9.19441 -25.9362
lclavicle 1.64184e-014 -4.87022e-015
lhumerus -38.1231 7.57589 80.6691
lradius 34.0385
lwrist -6.29561
lhand -14.0163 23.8223
lfingers 7.12502
lthumb 12.1133 53.4517
rfemur -9.25745 -9.24284 19.5859
rtibia 40.3051
rfoot -24.1568 1.64293
rtoes -2.21898
lfemur -6.59028 2.55203 -24.0858
ltibia 33.5471
lfoot -20.0275 -0.836885
ltoes -5.35243
377
root -4.68168 17.4205 10.213 -180.956 15.2097 -180.179
lowerback 11.6349 1.26228 -4.28784
upperback 0.781082 1.2597 0.894085
thorax -5.82258 0.779217 3.15038
lowerneck -17.1997 -8.65627 -11.6278
upperneck 29.8628 -10.8639 10.0768
head 14.4137 -4.20971 4.24098
rclavicle 1.53965e-014 4.72114e-015
rhumerus -36.1058 -16.3506 -76.1788
rradius 34.338
rwrist 9.29016
rhand -16.9992 3.83183
rfingers 7.12502
rthumb 9.2361 -25.9459
lclavicle 1.53965e-014 4.72114e-015
lhumerus -38.1308 7.36923 80.682
lradius 34.049
lwrist -6.39649
lhand -13.2665 25.5636
lfingers 7.12502
lthumb 12.8363 55.1489
rfemur -9.68649 -10.0513 19.634
rtibia 41.0923
rfoot -24.2173 2.51178
rtoes -3.11901
lfemur -6.56444 2.41903 -23.7209
ltibia 33.2031
lfoot -20.331 -1.24616
ltoes -6.20483
378
root -4.64212 17.4149 10.2324 -180.981 14.7746 -180.209
lowerback 11.6965 1.26007 -4.50993
upperback 0.785208 1.22528 0.878146
thorax -5.85407 0.769087 3.26439
lowerneck -17.1676 -8.68355 -11.6726
upperneck 29.8367 -10.9617 10.3198
head 14.4323 -4.22077 4.33287
rclavicle -4.35525e-014 -5.7896e-015
rhumerus -36.1642 -16.9976 -76.0795
rradius 34.1657
rwrist 9.41292
rhand -16.9696 4.17622
rfingers 7.12502
rthumb 9.26465 -25.6002
lclavicle -4.35525e-014 -5.7896e-015
lhumerus -38.0852 6.92768 80.8043
lradius 34.1303
lwrist -6.12602
lhand -13.194 26.7685
lfingers 7.12502
lthumb 12.9062 56.3494
rfemur -10.0372 -10.7543 19.4835
rtibia 41.923
rfoot -24.3691 3.70105
rtoes -3.99046
lfemur -6.49039 2.39753 -23.4965
ltibia 32.9467
lfoot -20.6206 -1.71924
ltoes -6.866
379
root -4.60181 17.4109 10.255 -180.964 14.3924 -180.216
lowerback 11.7754 1.30834 -4.662
upperback 0.765821 1.26236 0.825151
thorax -5.92437 0.79268 3.28706
lowerneck -17.1508 -8.74206 -11.7096
upperneck 29.8504 -11.1036 10.5582
head 14.4785 -4.2474 4.41477
rclavicle -1.16483e-014 -3.50358e-015
rhumerus -36.2911 -17.6779 -75.9913
rradius 33.989
rwrist 9.2114
rhand -17.1602 4.61073
rfingers 7.12502
rthumb 9.08079 -25.1738
lclavicle -1.16483e-014 -3.50358e-015
lhumerus -37.9748 6.31773 80.9333
lradius 34.1982
lwrist -5.83238
lhand -13.2599 27.2838
lfingers 7.12502
lthumb 12.8426 56.8687
rfemur -10.4699 -11.2767 19.3521
rtibia 42.7974
rfoot -24.5052 5.13282
rtoes -5.00086
lfemur -6.49902 2.51618 -23.2435
ltibia 32.7529
lfoot -20.8297 -2.37238
ltoes -7.53189
380
root -4.56568 17.4095 10.2802 -180.921 14.0522 -180.319
lowerback 11.8403 1.34018 -4.85445
upperback 0.733562 1.26971 0.740262
thorax -5.99799 0.802482 3.30388
lowerneck -17.1581 -8.7711 -11.589
upperneck 29.8032 -11.1832 10.5623
head 14.4618 -4.26656 4.37804
rclavicle 3.09048e-015 -8.94531e-016
rhumerus -36.3884 -18.3215 -75.9136
rradius 33.8022
rwrist 9.08823
rhand -17.2787 4.77899
rfingers 7.12502
rthumb 8.96645 -25.0105
lclavicle 3.09048e-015 -8.94531e-016
lhumerus -37.8476 6 80.9475
lradius 34.2576
lwrist -5.89824
lhand -12.9189 27.7431
lfingers 7.12502
lthumb 13.1714 57.3071
rfemur -11.0187 -11.7205 19.0854
rtibia 43.7377
rfoot -24.6334 6.86725
rtoes -6.84127
lfemur -6.5727 2.62145 -23.1286
ltibia 32.5674
lfoot -20.9109 -3.06289
ltoes -6.81989
381
root -4.53114 17.4119 10.303 -180.966 13.772 -180.544
lowerback 11.9774 1.38479 -5.15478
upperback 0.69793 1.27562 0.651157
thorax -6.118 0.816241 3.37645
lowerneck -17.1018 -8.79282 -11.5226
upperneck 29.7407 -11.2441 10.5881
head 14.4274 -4.28299 4.36441
rclavicle 2.16986e-014 3.32964e-015
rhumerus -36.4844 -18.8305 -75.8336
rradius 33.6549
rwrist 9.09103
rhand -17.4083 4.57835
rfingers 7.12502
rthumb 8.84136 -25.2164
lclavicle 2.16986e-014 3.32964e-015
lhumerus -37.7737 5.77947 80.9594
lradius 34.3
lwrist -6.02024
lhand -13.1453 27.5699
lfingers 7.12502
lthumb 12.9532 57.1478
rfemur -11.5254 -12.0778 18.6144
rtibia 44.7428
rfoot -24.7661 8.7046
rtoes -8.62532
lfemur -6.55664 2.63431 -23.2042
ltibia 32.3483
lfoot -20.959 -3.19415
ltoes -7.41043
382
root -4.49461 17.4132 10.3235 -181.04 13.4987 -180.814
lowerback 12.0906 1.40728 -5.44439
upperback 0.695886 1.2546 0.523892
thorax -6.18501 0.815218 3.40751
lowerneck -17.1839 -8.80543 -11.5584
upperneck 29.8007 -11.2907 10.7452
head 14.4957 -4.27797 4.42988
rclavicle -5.77718e-015 -2.98177e-015
rhumerus -36.5569 -19.2098 -75.8754
rradius 33.4994
rwrist 8.8639
rhand -17.6896 4.91789
rfingers 7.12502
rthumb 8.5699 -24.8882
lclavicle -5.77718e-015 -2.98177e-015
lhumerus -37.6113 5.51002 80.924
lradius 34.2087
lwrist -6.02099
lhand -13.9407 26.5301
lfingers 7.12502
lthumb 12.1863 56.1551
rfemur -11.97 -12.2969 18.0486
rtibia 45.7909
rfoot -24.851 10.4244
rtoes -10.0525
lfemur -6.47329 2.66052 -23.3396
ltibia 32.0877
lfoot -20.9547 -3.1986
ltoes -8.27473
